<?xml version="1.0" encoding="utf-8"?>
<!-- Generator: Adobe Illustrator 21.1.0, SVG Export Plug-In . SVG Version: 6.00 Build 0)  -->
<svg version="1.1" xmlns="http://www.w3.org/2000/svg" xmlns:xlink="http://www.w3.org/1999/xlink" x="0px" y="0px"
	 viewBox="0 0 2000 300" style="enable-background:new 0 0 2000 300;" xml:space="preserve">
<style type="text/css">
	.st0{display:none;}
	.st1{display:inline;fill:#046B99;}
	.st2{fill:#FFFFFF;}
	.st3{fill:#046B99;}
	.st4{font-family:'IBMPlexSans-Bold';}
	.st5{font-size:160px;}
	.st6{display:inline;}
</style>
<g id="bg" class="st0">
	<rect x="0" class="st1" width="2000" height="300"/>
</g>
<g id="olli">
	<title>Asset 2</title>
	<g id="Layer_2">
		<g id="Layer_1-2">
			<path class="st2" d="M968.4,153.7c-0.4-14.1,4.4-27.4,14-38.9c14.2-17.1,32.6-24.5,54.6-23c15.7,0.9,30.5,7.9,41,19.6
				c12.5,13.3,18.3,29.3,17.2,47.5c-0.8,15.2-7.1,29.6-17.8,40.4c-14,14.4-31.4,20.4-51.3,19.1c-12.8-0.8-25-5.7-34.8-14.1
				C976,191.4,968,174.9,968.4,153.7z M1007.3,149.4l-0.6,0.2c1,3.3,1.5,6.9,3.1,9.9c2.5,4.8,5.5,9.4,8.8,13.8
				c3.5,4.3,7.1,8.4,11,12.3c0.6,0.7,2.1,1.3,2.7,1c1.5-0.8,2.9-1.8,4.1-3.1c2.6-2.9,5.1-5.8,7.4-8.9c3.2-4,6.1-8.3,8.8-12.6
				c3.1-5.5,5-11.4,3.2-17.8c-1.5-5.2-3.8-9.8-8.2-13.5c-3.7-3.3-8.3-5.4-13.2-6c-7-0.8-13.3,1.7-18.6,6
				C1009.9,135.5,1007.3,142,1007.3,149.4L1007.3,149.4z"/>
			<path class="st2" d="M1106.3,50.2c1.2,0,2-0.1,2.9-0.1c4.6,0,9.2,0.1,13.8,0c10.5-0.4,18.1,4.6,23.3,13c2.1,3.5,3.2,7.5,3.2,11.6
				c0.3,29.4,0.1,58.8,0.2,88.2c-0.1,6.2,2,12.2,6,17c2.5,2.9,5.9,4.9,9.6,5.6c3.6,0.7,7.3,0.9,11.3,1.3c-0.5,5.3,1.1,10.8-1.3,16.2
				c-3,7-8.7,10.8-15.4,13.2c-5.6,2.1-11.5,2.8-17.5,2.2c-8.4-1-16.2-3.6-23.2-8.9c-5.6-4.2-8.8-9.9-11.2-16
				c-1.1-3.2-1.7-6.7-1.7-10.1c-0.1-43.3-0.2-86.5-0.1-129.8V50.2z"/>
			<path class="st2" d="M1181.6,50c7.4,0,14.5-0.9,21.3,0.2c10.8,1.7,17.9,8.6,21.1,19.1c0.6,2.3,0.9,4.7,0.8,7
				c0.1,29.2-0.1,58.3,0.1,87.5c0,6.7,1.9,13.1,7.4,17.5c2.4,1.9,5.1,3.2,8,3.9c3.5,0.9,7.3,0.9,11.2,1.3c0.6,8.4,1.1,16.9-6,23.4
				c-4.8,4.3-10.8,7-17.2,7.6c-2.8,0.4-5.5,0.7-8.3,0.7c-8.8-0.2-17.3-3-24.6-8c-6.9-4.8-10.5-11.7-13-19.4
				c-0.5-1.9-0.8-3.9-0.8-5.9c0-44.1,0-88.1,0-132.2L1181.6,50z"/>
			<path class="st2" d="M1256.3,96.9c5.7,0,11.3,0.1,16.9,0c4.4-0.2,8.7,0.8,12.5,3c6.6,3.9,11.6,9.1,13,17c0.4,2.4,0.7,4.9,0.7,7.3
				c0.1,12.2,0,24.5,0.1,36.7c0,5.4,0.9,10.7,3.6,15.6c2.5,4.7,7,8,12.3,8.9c3.7,0.7,7.5,0.9,11.9,1.3c-0.5,3.2-0.8,6.4-0.9,9.7
				c0,3.6-1.1,7-3.2,9.9c-1.7,2.4-3.9,4.5-6.3,6.1c-4.5,3.1-9.6,4.4-15,5.3c-6.5,1.1-12.4,0.1-18.6-1.4c-4.4-1.1-8.5-2.9-12.2-5.4
				c-3.7-2.6-7.2-5.5-9.2-9.6c-1.8-3.6-3.5-7.3-4.8-11.1c-0.6-2-0.9-4.2-0.8-6.3c0-28.1,0-56.1,0-84.2
				C1256.1,98.8,1256.2,98,1256.3,96.9z"/>
			<path class="st2" d="M1276.8,89.6c-12.7,1.3-23.8-10.8-23.2-23.9c0.6-12.9,11.4-22.8,24.3-22.3s22.8,11.4,22.3,24.3
				c0,0.3,0,0.5,0,0.8C1299.6,78.6,1290.6,90.8,1276.8,89.6z"/>
			<path class="st3" d="M1007.3,149.4c0-7.4,2.6-13.9,8.4-18.6c5.3-4.3,11.6-6.9,18.7-6c4.9,0.6,9.5,2.7,13.2,6
				c4.3,3.6,6.6,8.3,8.2,13.5c1.9,6.4-0.1,12.3-3.2,17.8c-2.7,4.4-5.6,8.6-8.8,12.6c-2.3,3.1-4.8,6-7.4,8.9
				c-1.1,1.3-2.5,2.3-4.1,3.1c-0.6,0.3-2.1-0.4-2.7-1c-3.9-3.9-7.5-8-11-12.3c-3.3-4.3-6.2-8.9-8.8-13.8c-1.6-3-2.1-6.6-3.1-9.9
				L1007.3,149.4z M1031.8,139.4c-6.4-0.2-9.4,4.9-9.6,9.1c-0.2,5.2,4.5,9.9,9.4,9.6c4.6-0.3,9.3-3.6,9.4-9.7
				C1041,143.6,1036.6,138.9,1031.8,139.4L1031.8,139.4z"/>
			<path class="st2" d="M1031.8,139.4c4.8-0.5,9.2,4.2,9.2,9c-0.1,6.1-4.8,9.4-9.4,9.7c-4.9,0.3-9.6-4.4-9.4-9.6
				C1022.4,144.3,1025.4,139.2,1031.8,139.4z"/>
		</g>
	</g>
</g>
<g id="accessible">
	<text transform="matrix(1 0 0 1 67.6216 216.47)" class="st2 st4 st5">#accessible</text>
</g>
<g id="slogan_right" class="st0">
	<title>Asset 2</title>
	<g id="Layer_2_1_" class="st6">
		<g id="Layer_1-2_1_">
			<path class="st2" d="M1820,139.8c-5,4.9-11.5,5.2-16.9,0.8c-6.6-5.4-6.3-17.2,0-22.3c5.5-4.4,12.3-3.9,16.6,1
				c0.6-2.3,2.6-4.2,4.3-4c2.8,0.4,4.1,1.9,4.2,4.8c0,6.9,0.3,13.8-0.1,20.7c-0.3,6-2.2,11.6-8.6,14c-6.7,2.5-12.5,1.9-17.9-3.3
				c-1.3-1-1.7-2.9-1-4.4c1.3-2.9,3.8-3,6.7-0.6c4.5,3.6,9.8,3,12.2-2.3C1820,143,1819.8,141.3,1820,139.8z M1813,136
				c3.6,0,7-3.2,6.8-6.7c-0.1-2.4-3.4-6.7-7-6.7c-3.3,0-6.6,4.1-6.4,7C1806.5,133.2,1809.5,136,1813,136L1813,136z"/>
			<path class="st2" d="M1578.3,139.9c-5.8,5.3-11.9,4.6-16.7,0.6c-6.1-5.2-6.2-14.6-1.8-20.1c4.2-5.3,11-7.4,18.7-1.6
				c0-4.9,0-9.5,0-14.1c-0.1-2.3,1.7-4.2,3.9-4.3c0.2,0,0.4,0,0.6,0c2,0.4,3.5,1.9,3.7,3.9c0,11.5,0.1,23-0.1,34.5
				c0,1.4-1.5,3.1-2.8,3.9c-1.5,0.8-3.3,0.3-4.2-1.2C1579.3,140.9,1578.8,140.4,1578.3,139.9z M1571.4,136c4.1,0,7.1-2.8,7.1-6.6
				c-0.1-3.8-3.2-6.7-6.9-6.7c0,0-0.1,0-0.1,0c-3.5,0.1-6.3,3.1-6.2,6.6c0,0,0,0.1,0,0.1c-0.1,3.5,2.5,6.4,6,6.5
				C1571.3,136,1571.3,136,1571.4,136z"/>
			<path class="st2" d="M1524.9,201.1c0,4.2,0,8,0,11.8c0.1,2.3-1.7,4.2-4,4.4c-2.4-0.1-4.3-2.1-4.2-4.5c0,0,0,0,0,0
				c0-10.4,0-20.8,0-31.2c0-3.5,0.5-4.1,3.6-4.9c1.9-0.5,3.8,0.7,4.9,3c6.3-5,12.6-4.8,18.3,1.4c4.7,5.1,4.1,13.4,0.2,18.5
				C1539.5,204.9,1532.9,207,1524.9,201.1z M1531.9,197.1c3.6-0.2,6.4-3.1,6.4-6.6c0-3.7-2.9-6.6-6.6-6.7c-3.7,0-6.7,3-6.8,6.6
				C1525,194.2,1528.2,197.2,1531.9,197.1L1531.9,197.1z"/>
			<path class="st2" d="M1482.7,131c1.5-4.7,2.9-8.8,4.1-13c0.8-2.5,2.6-3.9,4.5-3.5c2.7,0.6,4,2.6,3.1,5.5
				c-1.7,5.4-3.7,10.8-5.5,16.1c-0.4,1.2-0.7,2.3-1.1,3.5c-0.6,1.9-2.3,3.2-4.2,3.3c-1.9,0.3-3.7-0.9-4.2-2.7
				c-1.2-3.7-2.4-7.4-3.6-11.1c-0.3-1-0.7-1.9-1.4-3.7c-0.6,2.1-1,3.6-1.5,5c-1.1,3.5-2.2,7-3.5,10.3c-0.9,2.4-4.7,3.1-6,1.1
				c-1.9-3-3.4-6.2-4.7-9.5c-1.5-3.5-2.6-7.2-4-10.8c-1.1-2.8-0.5-5.5,1.6-6.6c1.7-1,3.9-0.5,5,1.2c0.2,0.3,0.3,0.7,0.4,1.1
				c1.3,4.2,2.7,8.5,4.1,12.9c0.4-0.3,0.8-0.4,0.9-0.7c1-3.3,1.9-6.7,3-10c1.2-3.7,2.8-5.2,5.1-4.9c2.5,0.3,4.2,2.7,4.9,6
				C1480.3,123.7,1481.5,127.1,1482.7,131z"/>
			<path class="st2" d="M1649.3,118.1c2.4-1,4.6-2.6,7-2.8c6.1-0.4,9.2,2.3,10.9,7.5c0.5,1.6,0.8,3.3,0.8,5.1c0.1,3.4,0,6.8,0,10.2
				c0,2.8-1.8,4.7-4.2,4.7s-4-1.9-4-4.6c0-3.2-0.1-6.3,0-9.5c0.2-2.8-1.9-5.1-4.7-5.3c-0.2,0-0.3,0-0.5,0c-3.5,0.2-5.3,1.8-5.3,5.4
				c0,3.1,0,6.2,0,9.2c0,2.9-1.6,4.8-4.1,4.8c-2.5,0-4.1-2-4.1-4.8c0-11,0-22,0-33c0-2.8,1.7-4.8,4.2-4.8s4.1,1.9,4.1,4.8
				C1649.3,109.6,1649.3,114,1649.3,118.1z"/>
			<path class="st2" d="M1519.5,139.9c-6.7,5.7-13.6,4.6-18.3-1.1c-4.7-5.7-4.7-13.1,0.1-18.9c4.3-5.3,11.6-6.6,17.8-1.3
				c2.4-2.9,5.1-3.9,7.2-2.1c0.9,0.9,1.5,2,1.6,3.3c0.2,6.1-0.1,12.2,0.1,18.2c0.2,2-1,4-2.8,4.8c-1.7,0.8-3.4,0.1-4.6-1.5
				L1519.5,139.9z M1512.5,136c4,0,6.9-2.7,7-6.4c0.1-3.7-2.8-6.7-6.5-6.8c-0.1,0-0.3,0-0.4,0c-3.7,0.2-6.4,3.4-6.2,7
				C1506.6,133.1,1509.2,135.8,1512.5,136L1512.5,136z"/>
			<path class="st2" d="M1441.1,179.7c0.9-2.4,3.5-3.6,5.9-2.7c1.7,0.2,2.9,1.8,2.8,3.5c0,6.2-0.1,12.5,0,18.7
				c0.1,1.9-1,3.8-2.8,4.6c-1.7,0.8-3.6,0.2-4.6-1.4c-0.3-0.5-0.7-0.9-1.1-1.3c-6.2,5.4-13.6,4.6-18.3-1.1
				c-4.4-5.3-4.4-13.6-0.2-18.7C1427.7,175.3,1434.8,174.4,1441.1,179.7z M1434.3,197.2c3.8,0,6.9-2.9,7.1-6.7
				c0-3.7-3.1-6.7-6.8-6.7c-0.1,0-0.2,0-0.2,0c-3.6,0-6.4,3-6.4,6.6c0,0,0,0,0,0.1C1428,194,1431,197.2,1434.3,197.2z"/>
			<path class="st2" d="M1737.1,127.5c2.8,2.7,5.3,5.1,7.7,7.6c0.9,1,1.6,2.2,2,3.6c0.6,1.5-0.2,3.1-1.6,3.7c-0.1,0-0.2,0.1-0.2,0.1
				c-1.7,0.7-2.9,0.7-4.2-0.8c-2.7-3.2-5.7-6.2-8.6-9.3l-0.9,0.5c0,1.7,0,3.4,0,5.1c0,3-1.7,4.9-4.3,4.9c-2.5,0-4-1.9-4-4.9
				c0-11,0-22,0-33c0-2.8,1.7-4.7,4.2-4.7c2.5,0,4.1,2,4.1,4.8c0,5.6,0,11.3,0,17.7c2.4-2.3,4.3-4.2,6.2-6c2.8-2.7,5-2.2,6.7,1.3
				c0.9,1.8-0.3,2.8-1.2,3.8C1741.2,123.8,1739.2,125.5,1737.1,127.5z"/>
			<path class="st2" d="M1650.4,179.7c1.5-2.7,3-3.2,5.7-2.7c2.1,0.4,2.9,1.6,2.9,3.6c0,6.1-0.1,12.1,0,18.2c0.2,2-0.8,4-2.6,4.9
				c-2,1-3.7-0.1-5-1.7c-0.3-0.3-0.6-0.6-0.9-0.9c-7.4,5-13.6,4.7-18.4-1.5c-4.4-5.4-4.4-13.3,0.1-18.6
				C1636.9,175.5,1643.9,174.3,1650.4,179.7z M1643.6,197.2c3.8,0.1,6.9-2.9,7.1-6.6c0-3.7-3.1-6.7-6.8-6.7c-0.1,0-0.1,0-0.2,0
				c-3.6,0-6.4,3-6.4,6.5c0,0,0,0,0,0.1C1637.4,194.1,1640.3,197.2,1643.6,197.2L1643.6,197.2z"/>
			<path class="st2" d="M1378.2,126.9c0,3.6,0,7.3,0,11s-3.9,6.4-6.9,4.1c-1.2-1-1.9-2.4-2.1-3.9c-0.2-10.5-0.1-21-0.1-31.5
				c0-2.7,1.5-4.2,4.3-4.2c5.9,0,11.8,0,17.7,0c1.9,0,4.1,2.2,4.1,3.9s-2.2,3.7-4,3.7c-4.2,0-8.5,0-12.8,0v8.8h8.4
				c3,0,4.7,1.4,4.8,3.7c0.1,2.5-1.6,3.9-4.9,3.9l-7.7,0.1C1378.9,126.6,1378.7,126.7,1378.2,126.9z"/>
			<path class="st2" d="M1411.3,115.3c7.5,0,14.7,5.8,14.6,14.2c-0.3,7.9-6.7,14.1-14.6,14.2c-7.7-0.1-14.7-6.2-14.6-14.4
				c0.1-7.8,6.5-14.1,14.2-14C1411.1,115.3,1411.2,115.3,1411.3,115.3z M1411.2,135.3c3.2,0.3,6-2.1,6.3-5.3c0-0.1,0-0.3,0-0.4
				c-0.1-3.8-2.3-6.1-6.2-6.1c-3.9,0-6.1,2.3-6.3,6C1404.8,132.6,1408.2,135.8,1411.2,135.3z"/>
			<path class="st2" d="M1564.8,176.2c7.6,0.1,14.6,5.8,14.5,14.3c-0.3,8-7,14.3-15,14.1c-7.3-0.2-14.2-6-14.2-14.3
				c0.1-7.8,6.5-14.1,14.3-14.1C1564.6,176.2,1564.7,176.2,1564.8,176.2z M1564.8,196.4c3.4,0.6,6.5-3,6.3-6c0-3.3-2.7-5.9-6-5.8
				c-0.1,0-0.2,0-0.3,0c-3.8,0-6.4,2.4-6.4,5.9C1558.4,193.9,1561,196.4,1564.8,196.4z"/>
			<path class="st2" d="M1715.1,204.6c-7.9,0.1-14.3-6.2-14.4-14c0-0.1,0-0.2,0-0.3c0-8.1,6.5-14.2,14.9-14
				c7.2,0.2,14.4,5.7,14.3,14.3C1729.8,197.7,1723.2,205,1715.1,204.6z M1715.3,184.5c-3.8,0-6.4,2.4-6.4,5.8c0,3.5,2.5,6,6.3,6
				c3.8,0,6.3-2.2,6.3-6C1721.5,186.9,1719,184.5,1715.3,184.5L1715.3,184.5z"/>
			<path class="st2" d="M1775.6,118.8c4.6-4,8.3-4.6,13-2c3.3,1.8,4.2,5.2,4.5,8.6c0.4,4.4,0.1,8.8,0.1,13.2c0,2.3-1.8,4.2-4.1,4.2
				c-2.3,0-4.2-1.8-4.2-4.1l0,0c0-3.3,0-6.7,0-10c0-2.2-0.8-4.3-2.7-4.9c-1.9-0.7-4.5-0.8-6,1.6c-0.5,0.7-0.8,1.6-0.8,2.5
				c-0.1,3.5,0,7,0,10.5c0.2,2.4-1.7,4.5-4.1,4.6c0,0,0,0,0,0c-2.5,0-4.2-1.9-4.2-4.7c0-5.8,0-11.5,0-17.2c0-2.1,0.1-4.2,2.6-5
				C1772.7,115.1,1774.4,116.3,1775.6,118.8z"/>
			<path class="st2" d="M1743.7,179.8c3.2-3.2,6.7-4.3,11.2-2.8c2.9,0.8,5.1,3.4,5.4,6.4c0.6,5.3,0.9,10.7,0.8,16
				c0,1.3-0.6,2.5-1.5,3.3c-1,0.8-3,1.5-3.9,1c-1.4-0.9-2.4-2.3-2.7-3.9c-0.3-3.4-0.3-6.8-0.1-10.2c0-2.2-0.9-4.2-2.8-4.8
				c-1.9-0.6-4.4-0.7-5.8,1.5c-0.5,0.7-0.8,1.5-0.9,2.4c-0.1,3.3,0,6.7,0,10s-1.5,5.3-4.1,5.3c-2.6,0-4.2-2-4.2-5.2
				c0-5.5,0-11,0-16.5c0-2.2,0-4.4,2.6-5.2S1742,176.9,1743.7,179.8z"/>
			<path class="st2" d="M1385.6,171.1c0,1.2,0,2,0,2.9c0,8.2,0,16.5,0,24.7c0.1,1.9-0.9,3.7-2.7,4.6c-1.4,1-3.3,0.7-4.5-0.5
				c-1-1.1-1.6-2.6-1.7-4.1c-0.2-8.2-0.1-16.3-0.1-24.5c0-0.9,0-1.8,0-3.1c-2.4,0-4.6,0-6.8,0c-2.9,0-4.4-1.3-4.4-3.7
				c0-2.4,1.6-3.8,4.5-3.8c7.5,0,15,0,22.5,0c2.8,0,4.5,1.4,4.5,3.8s-1.6,3.7-4.5,3.7C1390.2,171.2,1388,171.1,1385.6,171.1z"/>
			<path class="st2" d="M1465,179.8c4.2-3.9,7.7-4.5,12.7-2.1c1,0.5,1.9,1.3,2.5,2.2c1.7,2.7,2.5,5.9,2.3,9.2c-0.2,3.2,0,6.5,0,9.7
				s-1.6,5.1-4.1,5.1s-4.2-1.8-4.2-5s0.3-6.4-0.1-9.5c-0.2-1.7-1.4-4-2.8-4.7c-2-1.1-4.5-0.5-5.7,1.4c-0.5,0.8-0.8,1.7-0.9,2.7
				c-0.1,3.6,0,7.2-0.1,10.7c0,2.3-1.8,4.2-4.1,4.3c-2.3,0-4.2-1.9-4.2-4.2c0,0,0,0,0,0c0-5.9,0-11.8,0-17.7c0-2.3,0.1-4.5,3.1-5
				C1461.8,176.5,1463.4,177.1,1465,179.8z"/>
			<path class="st2" d="M1699,118.7c3.8-3.8,7.9-4.6,12.7-2c3.4,1.8,4.2,5.2,4.6,8.4c0.5,4.5,0.2,9.1,0.1,13.7
				c-0.1,2.2-1.9,4-4.1,4.1c-2.2,0-4.1-1.8-4.2-4c-0.1-3.4-0.1-6.8,0-10.2c0.2-2-0.9-4-2.6-5c-1.6-1-4.9,0-6.2,1.7
				c-0.5,0.7-0.8,1.6-0.8,2.4c-0.1,3.5,0,7,0,10.5c0,2.7-1.7,4.6-4.1,4.6c-2.3,0-4.2-2-4.2-4.3c0-0.1,0-0.1,0-0.2
				c0-5.7,0-11.5,0-17.2c0-2.2,0-4.4,2.7-5.2C1695.6,115.2,1697.2,115.9,1699,118.7z"/>
			<path class="st2" d="M1499.5,204.8c-4.1-0.1-7.5-1.2-10.1-4.6c-1.3-1.7-1.7-3.3-0.3-4.8c1.6-1.8,3.7-1.7,5.6,0.3
				c1.7,1.8,4.1,2.6,6.5,2.1c0.7-0.1,1.3-1,2-1.5c-0.5-0.6-0.8-1.4-1.4-1.6c-1.9-0.8-3.9-1.3-5.8-1.9c-4.1-1.4-7.1-4.5-6.8-8.5
				c0.1-1.4,0.6-2.7,1.5-3.8c3.4-3.4,7.4-5.1,12.4-3.6c2.2,0.4,4.1,1.5,5.7,3.1c1.4,1.5,1.9,3.5,0.6,4.6c-1,0.8-3.4,0.8-4.8,0.1
				c-1.7-0.8-3.3-1.9-5.3-1.5c-0.7,0.1-1.2,0.9-1.8,1.3c0.5,0.5,0.8,1.3,1.4,1.5c2.4,1.1,4.9,1.9,7.2,3c3.6,1.6,5.7,4.8,5.5,7.7
				c-0.3,3.4-3,6.4-6.9,7.4C1502.9,204.3,1501.2,204.5,1499.5,204.8z"/>
			<path class="st2" d="M1623.2,115.3c0-2.5,0-4.5,0-6.5c0-2.8,1.7-4.8,4.1-4.8c2.4,0,4.2,2.1,4.2,4.8c0,2.1,0,4.1,0,6.4
				c2.8,0,5.8-0.2,5.8,3.4c0,3.5-3,3.6-5.8,3.6c0,5.6,0,11,0,16.4c0,2.1-1.5,3.9-3.5,4.4c-2.3,0.3-4.4-1.4-4.7-3.7
				c0-0.2,0-0.3,0-0.5c0-5.4,0-10.8,0-16.3c-2.5-0.4-5.4-0.8-5.2-4C1618.2,115.7,1620.3,114.8,1623.2,115.3z"/>
			<path class="st2" d="M1612.8,183.1c-2.7-0.1-4.8-0.6-5.2-3.4c-0.3-1.8,1.6-3.1,5.2-3.9c0-2,0-4.1,0-6.1c0-2.7,1.6-4.5,4.1-4.6
				c2.6,0,4.2,1.7,4.2,4.7c0,2,0,4,0,6.3c2.8,0.1,6.1-0.2,5.9,3.8c-0.2,3.4-3.2,3.1-5.9,3.2c0,5.6,0.1,11-0.1,16.4
				c0,1.2-0.5,2.3-1.4,3.2c-1,0.8-3,1.6-3.9,1.1c-1.5-0.8-2.5-2.2-2.8-3.9c-0.3-4.6-0.1-9.1-0.1-13.7
				C1612.8,185.2,1612.8,184.3,1612.8,183.1z"/>
			<path class="st2" d="M1668.7,176.3c0-2.6,0-4.7,0-6.9c-0.1-2.2,1.6-4.1,3.9-4.2c0.1,0,0.2,0,0.2,0c2.2-0.1,4.1,1.7,4.1,3.9
				c0,0.1,0,0.2,0,0.3c0,2.1,0,4.3,0,6.8c2.9-0.1,6.1,0,5.9,3.8c-0.2,3-3,3.3-5.9,3.1c0,1.8,0,3.4,0,5.1c0,3.7,0,7.3,0,11
				c0,3.1-1.6,5-4.2,4.9c-2.4,0-4-2-4-4.9c0-5.2,0-10.4,0-15.8c-2.6-0.3-5.3-0.6-5.2-3.8C1663.6,176.7,1665.7,175.8,1668.7,176.3z"
				/>
			<path class="st2" d="M1543,121.3c1-3.6,4.7-6.6,8.2-6c2,0.3,4.3,2.3,4.3,3.8c-0.1,1.6-2.2,3.4-4.1,3.7c-0.5,0-1,0-1.5,0
				c-5.3-0.4-6.2,2.3-6.9,6.9c-0.4,2.7-0.1,5.5-0.1,8.2c0,3-1.6,5-4.2,5c-2.5,0-4.2-2-4.2-5c0-5.9,0-11.8,0-17.7
				c0-2.9,1.6-4.9,4-4.9c2.6-0.1,4.3,1.7,4.4,4.8C1542.9,120.3,1542.9,120.5,1543,121.3z"/>
			<path class="st2" d="M1439.4,121c1.4-3.8,4.8-6.2,8.3-5.7c2,0.3,4.1,2.1,4.1,3.7s-2,3.5-4,3.8c-0.5,0.1-1,0.1-1.5,0
				c-5.2-0.4-6.4,2.3-7,7.1c-0.2,2.7-0.2,5.5-0.1,8.2c0,2.8-1.7,4.8-4.1,4.8c-2.4,0-4.1-1.9-4.1-4.7c0-6.1,0-12.1,0-18.2
				c0-2.7,1.6-4.6,4-4.7s4.2,1.8,4.3,4.6C1439.3,120.2,1439.4,120.5,1439.4,121z"/>
			<path class="st2" d="M1405.9,182c1.6-4.4,6.2-7,9.5-5.2c1.2,0.7,2.8,2.3,2.8,3.5c0,1.9-1.9,3.1-3.9,3.5c-0.4,0.1-0.8,0.1-1.2,0
				c-5.4-0.5-6.7,2.1-7.3,7.4c-0.2,2.6-0.2,5.2-0.1,7.7c0,3.1-1.6,5-4.2,5c-2.5,0-4.2-2.1-4.2-5.1c0-5.9,0-11.8,0-17.7
				c0-2.8,1.7-4.8,4-4.9c2.5-0.1,4.1,1.7,4.3,4.6C1405.8,181.2,1405.8,181.5,1405.9,182z"/>
			<path class="st2" d="M1593.7,181.5c1.8-2.9,3.7-5.4,7.6-5.3c2.5,0.1,4.8,1.9,4.8,3.8c0,1.9-2.4,4.1-4.8,3.7
				c-5.6-0.8-7.5,2.7-7.8,8.2c-0.1,2.3,0,4.6,0,7c0,3.1-1.7,5-4.2,5c-2.5,0-4.1-1.9-4.1-5c0-5.9,0-11.8,0-17.7c0-2.9,1.6-4.9,4-4.9
				c2.6-0.1,4.2,1.7,4.4,4.8C1593.6,181.2,1593.7,181.4,1593.7,181.5z"/>
			<path class="st2" d="M1687.2,189.9c0-3.2,0-6.3,0-9.5c0-2.7,1.5-4.1,4.1-4.1c2.6,0,4.2,1.3,4.2,4c0,6.5,0,13,0,19.4
				c0,2.3-1.8,4.2-4.1,4.2c0,0,0,0-0.1,0c-2.3-0.1-4.1-2-4.1-4.3C1687.2,196.4,1687.2,193.1,1687.2,189.9z"/>
			<path class="st2" d="M1675.3,128.8c0-3.2,0-6.3,0-9.5c0-2.7,1.5-4.1,4.1-4.1s4.1,1.3,4.2,4c0,6.5,0,13,0,19.4
				c0,2.3-1.9,4.2-4.2,4.2c-2.3-0.1-4.1-2-4.1-4.3C1675.3,135.3,1675.3,132.1,1675.3,128.8z"/>
			<path class="st2" d="M1759.6,129c0,3.1,0,6.1,0,9.2c0,2.8-1.8,4.7-4.3,4.6c-2.3,0-4-2-4-4.6c0-6.1,0-12.3,0-18.4
				c0-3.1,1.3-4.6,4.2-4.6s4.1,1.3,4.1,4.5C1759.6,122.9,1759.6,126,1759.6,129z"/>
			<path class="st2" d="M1604.6,124.9c2.3,0,4.7,0,7,0c2.3,0,3.6,1.3,3.6,3.5c0.1,1.8-1.2,3.3-3,3.4c-0.1,0-0.3,0-0.4,0
				c-4.7,0-9.5,0-14.2,0c-1.7,0.1-3.3-1.2-3.4-2.9c0-0.2,0-0.3,0-0.5c0-2.3,1.2-3.5,3.5-3.5S1602.3,124.9,1604.6,124.9z"/>
			<path class="st2" d="M1691.1,171.1c-2.5,0-5.4-2.6-5.3-4.9c0.1-2.3,2.8-4.8,5.2-4.9s5.4,2.9,5.3,5S1693.4,171.1,1691.1,171.1z"/>
			<path class="st2" d="M1773,204.6c-2.5,0.1-5.3-2.6-5.3-4.9c0-2.1,2.8-4.8,5-4.9c2.4,0,5.3,2.4,5.5,4.7S1775.6,204.5,1773,204.6z"
				/>
			<path class="st2" d="M1755,110.1c-2.2-0.1-5.1-2.8-5.1-4.9c0-2.2,3-5,5.4-4.9c2.4,0.1,5.2,2.8,5.2,4.9S1757.3,110.2,1755,110.1z"
				/>
			<path class="st2" d="M1679,110.1c-2.2,0-5.3-2.8-5.1-4.9c0.4-2.7,2.6-4.7,5.3-4.9c2.3,0.1,5.2,2.7,5.2,4.9
				C1684.4,107.3,1681.3,110.2,1679,110.1z"/>
			<path class="st3" d="M1813,136c-3.6,0-6.5-2.8-6.6-6.4c-0.2-2.9,3.1-7,6.4-7c3.6,0,6.9,4.3,7,6.7C1820,132.8,1816.7,136,1813,136
				z"/>
			<path class="st3" d="M1571.4,136c-3.5-0.1-6.2-2.9-6.2-6.4c0,0,0-0.1,0-0.1c-0.2-3.5,2.5-6.5,6.1-6.7c0,0,0.1,0,0.1,0
				c3.8-0.1,6.9,2.8,7.1,6.5c0,0.1,0,0.1,0,0.2C1578.5,133.2,1575.5,136,1571.4,136z"/>
			<path class="st3" d="M1532,197.2c-3.8,0-6.8-3-7-6.7c0.1-3.7,3.1-6.6,6.8-6.6c3.7,0.1,6.6,3.1,6.6,6.7
				C1538.4,194.1,1535.5,197,1532,197.2z"/>
			<path class="st3" d="M1512.6,136c-3.7-0.3-6.4-3.5-6.1-7.1c0.2-3.3,2.9-5.9,6.2-6.1c3.7-0.1,6.8,2.8,6.9,6.4c0,0.1,0,0.3,0,0.4
				C1519.5,133.3,1516.6,136,1512.6,136z"/>
			<path class="st3" d="M1434.3,197.2c-3.3,0-6.3-3.1-6.3-6.7c-0.1-3.6,2.7-6.5,6.3-6.6c3.7-0.2,6.8,2.7,7,6.4c0,0.1,0,0.2,0,0.2
				C1441.2,194.2,1438.1,197.2,1434.3,197.2z"/>
			<path class="st3" d="M1643.6,197.2c-3.4,0-6.2-3.1-6.2-6.8c-0.1-3.6,2.7-6.5,6.3-6.6c0,0,0,0,0.1,0c3.7-0.1,6.9,2.8,7,6.5
				c0,0.1,0,0.1,0,0.2C1650.6,194.3,1647.4,197.3,1643.6,197.2z"/>
			<path class="st3" d="M1411.2,135.3c-3.1,0.5-6.4-2.7-6.3-5.8c0.2-3.7,2.4-6,6.3-6c3.9,0,6.1,2.3,6.2,6.1c0,3.2-2.7,5.8-5.9,5.8
				C1411.5,135.3,1411.4,135.3,1411.2,135.3z"/>
			<path class="st3" d="M1564.8,196.4c-3.8,0-6.3-2.4-6.3-6s2.6-5.9,6.4-5.9c3.3-0.2,6,2.3,6.2,5.6c0,0.1,0,0.2,0,0.3
				C1571.3,193.4,1568.2,196.9,1564.8,196.4z"/>
			<path class="st3" d="M1715.4,184.5c3.7,0,6.1,2.3,6.1,5.9c0,3.7-2.3,6-6.3,6s-6.3-2.4-6.3-6S1711.5,184.5,1715.4,184.5z"/>
		</g>
	</g>
</g>
<g id="slogan_under">
	<title>Asset 2</title>
	<g id="Layer_2_2_">
		<g id="Layer_1-2_2_">
			<path class="st2" d="M900.2,280.6c-5,4.9-11.5,5.2-16.9,0.8c-6.6-5.4-6.3-17.2,0-22.3c5.5-4.5,12.3-3.9,16.6,1
				c0.6-2.3,2.6-4.2,4.3-4c2.8,0.4,4.1,1.9,4.2,4.8c0,6.9,0.3,13.8-0.1,20.7c-0.3,6-2.2,11.6-8.6,14c-6.7,2.5-12.5,1.9-17.9-3.3
				c-1.3-1-1.7-2.9-1-4.4c1.3-2.9,3.8-3,6.7-0.7c4.5,3.6,9.8,3,12.2-2.3C900.2,283.8,900,282.1,900.2,280.6z M893.2,276.8
				c3.6,0,7-3.2,6.8-6.7c-0.1-2.4-3.4-6.7-7-6.7c-3.3,0-6.6,4.1-6.4,7C886.7,274,889.6,276.8,893.2,276.8L893.2,276.8z"/>
			<path class="st2" d="M658.5,280.7c-5.8,5.3-11.9,4.6-16.7,0.6c-6.1-5.1-6.2-14.5-1.8-20.1c4.2-5.3,11-7.4,18.7-1.5
				c0-4.9,0-9.5,0-14.1c-0.1-2.3,1.7-4.2,3.9-4.3c0.2,0,0.4,0,0.6,0c2,0.4,3.5,1.9,3.7,3.9c0,11.5,0.1,23-0.1,34.5
				c0,1.4-1.5,3.1-2.8,3.9c-1.5,0.8-3.3,0.3-4.2-1.2C659.4,281.7,659,281.2,658.5,280.7z M651.6,276.8c4.1,0,7.1-2.8,7.1-6.6
				c-0.1-3.8-3.2-6.7-6.9-6.7c0,0-0.1,0-0.1,0c-3.5,0.1-6.3,3.1-6.2,6.6c0,0,0,0.1,0,0.1c-0.1,3.5,2.5,6.4,6,6.5
				C651.5,276.8,651.5,276.8,651.6,276.8z"/>
			<path class="st2" d="M1082.6,281.3c0,4.2,0,8,0,11.8c0.1,2.3-1.7,4.2-4,4.4c-2.4-0.1-4.3-2.1-4.2-4.5c0,0,0,0,0,0
				c0-10.4,0-20.8,0-31.2c0-3.5,0.5-4.1,3.6-4.9c1.9-0.5,3.8,0.6,4.9,3c6.3-5,12.6-4.8,18.3,1.4c4.7,5.1,4.1,13.4,0.2,18.5
				C1097.2,285.1,1090.6,287.2,1082.6,281.3z M1089.6,277.3c3.6-0.2,6.4-3.1,6.4-6.6c0-3.7-2.9-6.6-6.6-6.7c-3.7,0-6.7,3-6.8,6.6
				C1082.7,274.4,1085.9,277.4,1089.6,277.3L1089.6,277.3z"/>
			<path class="st2" d="M562.8,271.7c1.5-4.7,2.9-8.8,4.1-13c0.8-2.5,2.6-3.9,4.5-3.5c2.7,0.6,4,2.6,3.1,5.5
				c-1.7,5.4-3.7,10.8-5.5,16.1c-0.4,1.1-0.7,2.3-1.1,3.5c-0.6,1.9-2.3,3.2-4.2,3.3c-1.9,0.3-3.7-0.9-4.2-2.7
				c-1.2-3.7-2.4-7.4-3.6-11.1c-0.3-1-0.7-2-1.4-3.7c-0.6,2.1-1,3.6-1.5,5c-1.1,3.5-2.2,7-3.5,10.3c-0.9,2.4-4.7,3.1-6,1.1
				c-1.9-3-3.4-6.2-4.7-9.5c-1.5-3.5-2.6-7.2-4-10.8c-1.1-2.8-0.5-5.5,1.6-6.6c1.7-1,3.9-0.5,5,1.2c0.2,0.3,0.3,0.7,0.4,1.1
				c1.3,4.2,2.7,8.5,4.1,12.9c0.4-0.3,0.8-0.4,0.9-0.7c1-3.3,1.9-6.7,3-10c1.2-3.7,2.8-5.2,5.1-4.9c2.5,0.3,4.2,2.7,4.9,6
				C560.5,264.5,561.7,267.9,562.8,271.7z"/>
			<path class="st2" d="M729.5,258.9c2.4-1,4.6-2.6,7-2.8c6.1-0.4,9.2,2.3,10.9,7.5c0.5,1.6,0.8,3.3,0.8,5.1c0.1,3.4,0,6.8,0,10.2
				c0,2.8-1.8,4.7-4.2,4.7c-2.5,0-4-1.9-4-4.6c0-3.2-0.1-6.3,0-9.5c0.2-2.8-1.9-5.1-4.7-5.3c-0.2,0-0.3,0-0.5,0
				c-3.5,0.2-5.3,1.8-5.3,5.4c0,3.1,0,6.2,0,9.2c0,2.9-1.6,4.8-4.1,4.8s-4.1-2-4.1-4.8c0-11,0-22,0-33c0-2.8,1.7-4.8,4.2-4.8
				s4.1,1.9,4.1,4.8C729.5,250.3,729.5,254.8,729.5,258.9z"/>
			<path class="st2" d="M599.7,280.7c-6.7,5.7-13.6,4.6-18.3-1.1s-4.7-13.1,0.1-19c4.3-5.3,11.6-6.6,17.8-1.3
				c2.4-2.9,5.1-3.9,7.2-2.1c0.9,0.9,1.5,2,1.6,3.3c0.2,6.1-0.1,12.2,0.1,18.2c0.2,2-1,4-2.8,4.8c-1.7,0.8-3.4,0.1-4.6-1.5
				L599.7,280.7z M592.7,276.8c4,0,6.9-2.7,7-6.4c0.1-3.7-2.8-6.7-6.5-6.8c-0.1,0-0.3,0-0.4,0c-3.7,0.2-6.4,3.4-6.2,7
				C586.8,273.9,589.4,276.5,592.7,276.8L592.7,276.8z"/>
			<path class="st2" d="M998.8,259.9c0.9-2.4,3.5-3.6,5.9-2.7c1.7,0.2,2.9,1.8,2.8,3.5c0,6.2-0.1,12.5,0,18.7c0.1,1.9-1,3.8-2.8,4.6
				c-1.7,0.8-3.6,0.2-4.6-1.4c-0.3-0.5-0.7-0.9-1.1-1.3c-6.2,5.4-13.6,4.6-18.3-1.1c-4.4-5.3-4.4-13.6-0.2-18.7
				C985.4,255.5,992.5,254.6,998.8,259.9z M992.1,277.4c3.8,0,6.9-2.9,7.1-6.7c0-3.7-3.1-6.7-6.8-6.7c-0.1,0-0.2,0-0.2,0
				c-3.6,0-6.4,3-6.4,6.6c0,0,0,0,0,0.1C985.7,274.2,988.7,277.4,992.1,277.4z"/>
			<path class="st2" d="M817.3,268.2c2.8,2.7,5.3,5.1,7.7,7.6c0.9,1,1.6,2.2,2,3.6c0.6,1.5-0.2,3.1-1.6,3.7c-0.1,0-0.2,0.1-0.2,0.1
				c-1.7,0.7-2.9,0.7-4.2-0.8c-2.7-3.2-5.7-6.2-8.6-9.3l-0.9,0.5c0,1.7,0,3.4,0,5.1c0,3-1.7,4.9-4.3,4.9c-2.5,0-4-2-4-4.9
				c0-11,0-22,0-32.9c0-2.8,1.7-4.7,4.2-4.7c2.5,0,4.1,2,4.1,4.8c0,5.6,0,11.3,0,17.7c2.4-2.3,4.3-4.2,6.2-6c2.8-2.7,5-2.2,6.7,1.3
				c0.9,1.8-0.3,2.8-1.2,3.8C821.4,264.5,819.4,266.2,817.3,268.2z"/>
			<path class="st2" d="M1208.1,259.9c1.5-2.6,3-3.2,5.7-2.7c2.1,0.4,2.9,1.6,2.9,3.6c0,6.1-0.1,12.1,0,18.2c0.2,2-0.8,4-2.6,4.9
				c-1.9,1-3.7-0.1-5-1.7c-0.3-0.3-0.6-0.6-0.9-0.9c-7.4,5-13.6,4.7-18.4-1.5c-4.4-5.4-4.4-13.3,0.1-18.6
				C1194.6,255.7,1201.6,254.5,1208.1,259.9z M1201.3,277.4c3.8,0.1,6.9-2.9,7.1-6.6c0-3.7-3.1-6.7-6.8-6.7c-0.1,0-0.1,0-0.2,0
				c-3.6,0-6.4,3-6.4,6.5c0,0,0,0,0,0.1C1195.1,274.3,1198,277.4,1201.3,277.4L1201.3,277.4z"/>
			<path class="st2" d="M458.4,267.7c0,3.5,0,7.3,0,11c0,3.7-3.9,6.4-6.9,4.1c-1.2-1-1.9-2.4-2.1-3.9c-0.2-10.5-0.1-21-0.1-31.4
				c0-2.7,1.5-4.2,4.3-4.2c5.9,0,11.8,0,17.7,0c1.9,0,4.1,2.2,4.1,3.9s-2.2,3.7-4,3.7c-4.2,0-8.5,0-12.9,0v8.8h8.4
				c3,0,4.7,1.4,4.8,3.7c0.1,2.5-1.6,3.9-4.9,3.9l-7.7,0.1C459,267.4,458.9,267.5,458.4,267.7z"/>
			<path class="st2" d="M491.5,256c7.5,0,14.7,5.9,14.5,14.2c-0.3,7.9-6.7,14.1-14.6,14.2c-7.7-0.1-14.7-6.1-14.6-14.4
				c0.1-7.8,6.5-14.1,14.2-14C491.2,256,491.4,256,491.5,256z M491.4,276.1c3.2,0.3,6-2.1,6.3-5.3c0-0.1,0-0.3,0-0.4
				c-0.1-3.8-2.3-6.1-6.2-6.1s-6.1,2.3-6.4,6C485,273.4,488.3,276.6,491.4,276.1z"/>
			<path class="st2" d="M1122.5,256.4c7.6,0.1,14.6,5.8,14.5,14.3c-0.3,8-7,14.3-15,14.1c-7.3-0.2-14.2-6-14.2-14.3
				c0.1-7.8,6.5-14.1,14.3-14.1C1122.3,256.4,1122.4,256.4,1122.5,256.4z M1122.5,276.6c3.4,0.6,6.5-3,6.3-6c0-3.3-2.7-5.9-6-5.8
				c-0.1,0-0.2,0-0.3,0c-3.8,0-6.4,2.4-6.4,5.9C1116.1,274.1,1118.7,276.6,1122.5,276.6z"/>
			<path class="st2" d="M1272.8,284.8c-7.9,0.1-14.3-6.2-14.4-14c0-0.1,0-0.2,0-0.3c0-8.1,6.5-14.2,14.9-14
				c7.2,0.2,14.4,5.7,14.3,14.3C1287.5,277.9,1280.9,285.2,1272.8,284.8z M1273.1,264.7c-3.8,0-6.4,2.4-6.4,5.9s2.5,6,6.3,6
				c3.8,0,6.3-2.2,6.3-6C1279.2,267,1276.7,264.7,1273.1,264.7L1273.1,264.7z"/>
			<path class="st2" d="M855.8,259.5c4.6-4,8.3-4.6,13-2c3.3,1.8,4.2,5.2,4.5,8.5c0.4,4.4,0.1,8.8,0.1,13.2c0,2.3-1.8,4.2-4.1,4.2
				s-4.2-1.8-4.2-4.1l0,0c0-3.3,0-6.7,0-10c0-2.2-0.8-4.2-2.7-4.9s-4.5-0.8-6,1.6c-0.5,0.7-0.8,1.6-0.8,2.5c-0.1,3.5,0,7,0,10.5
				c0.2,2.4-1.7,4.5-4.1,4.6c0,0,0,0,0,0c-2.5,0-4.2-1.9-4.2-4.7c0-5.8,0-11.5,0-17.2c0-2.1,0-4.2,2.6-5
				C852.8,255.9,854.6,257.1,855.8,259.5z"/>
			<path class="st2" d="M1301.4,260c3.2-3.2,6.7-4.3,11.2-2.8c2.9,0.8,5.1,3.4,5.4,6.4c0.6,5.3,0.9,10.7,0.8,16
				c0,1.3-0.6,2.5-1.5,3.3c-1,0.8-3,1.5-3.9,1c-1.4-0.9-2.4-2.3-2.7-3.9c-0.3-3.4-0.3-6.8-0.1-10.2c0-2.2-0.9-4.2-2.8-4.8
				c-1.9-0.6-4.4-0.7-5.8,1.5c-0.5,0.7-0.8,1.5-0.9,2.4c-0.1,3.3,0,6.7,0,10c0,3.3-1.5,5.3-4.1,5.3c-2.6,0-4.2-2-4.2-5.2
				c0-5.5,0-11,0-16.5c0-2.2,0-4.4,2.6-5.2C1297.9,256.4,1299.7,257.1,1301.4,260z"/>
			<path class="st2" d="M943.3,251.3c0,1.2,0,2,0,2.9c0,8.2,0,16.5,0,24.7c0.1,1.9-0.9,3.7-2.7,4.6c-1.4,1-3.3,0.7-4.5-0.5
				c-1-1.1-1.6-2.6-1.7-4.1c-0.2-8.2-0.1-16.3-0.1-24.5c0-0.9,0-1.8,0-3.1c-2.4,0-4.6,0-6.8,0c-2.9,0-4.4-1.3-4.4-3.7
				c0-2.4,1.5-3.8,4.5-3.8c7.5,0,15,0,22.5,0c2.9,0,4.5,1.4,4.5,3.8c0,2.3-1.6,3.7-4.5,3.7C947.9,251.4,945.7,251.3,943.3,251.3z"/>
			<path class="st2" d="M1022.7,260c4.2-3.9,7.7-4.5,12.7-2.1c1,0.5,1.9,1.3,2.5,2.2c1.7,2.7,2.5,5.9,2.3,9.2c-0.2,3.2,0,6.5,0,9.7
				s-1.6,5.1-4.1,5.1c-2.5,0-4.1-1.8-4.2-5s0.3-6.4-0.1-9.5c-0.2-1.7-1.4-4-2.8-4.7c-2-1.1-4.5-0.5-5.7,1.4
				c-0.5,0.8-0.8,1.7-0.9,2.7c-0.1,3.6,0,7.2,0,10.7c0,2.3-1.8,4.2-4.1,4.3c-2.3,0-4.2-1.9-4.2-4.2c0,0,0,0,0,0c0-5.9,0-11.8,0-17.7
				c0-2.3,0.1-4.5,3.1-5C1019.6,256.7,1021.1,257.3,1022.7,260z"/>
			<path class="st2" d="M779.1,259.5c3.8-3.8,7.9-4.6,12.7-2c3.4,1.8,4.2,5.2,4.6,8.4c0.5,4.5,0.2,9.1,0.1,13.7
				c-0.1,2.2-1.9,4-4.1,4c-2.2,0-4.1-1.8-4.2-4c-0.1-3.4-0.1-6.8,0-10.2c0.2-2-0.9-4-2.6-5c-1.6-1-4.9,0-6.2,1.7
				c-0.5,0.7-0.8,1.6-0.8,2.4c-0.1,3.5,0,7,0,10.5c0,2.7-1.7,4.6-4.1,4.6c-2.3,0-4.2-2-4.2-4.3c0-0.1,0-0.1,0-0.2
				c0-5.7,0-11.5,0-17.2c0-2.2,0-4.4,2.7-5.2S777.3,256.6,779.1,259.5z"/>
			<path class="st2" d="M1057.2,285c-4.1-0.1-7.5-1.2-10.1-4.6c-1.3-1.7-1.7-3.3-0.3-4.8c1.6-1.8,3.7-1.7,5.6,0.3
				c1.7,1.8,4.1,2.6,6.5,2.1c0.7-0.1,1.3-1,2-1.5c-0.5-0.6-0.8-1.4-1.4-1.6c-1.9-0.8-3.9-1.3-5.8-1.9c-4.1-1.4-7.1-4.5-6.8-8.5
				c0.1-1.4,0.6-2.7,1.5-3.8c3.4-3.4,7.4-5.1,12.5-3.6c2.2,0.4,4.1,1.5,5.7,3.1c1.4,1.5,1.9,3.5,0.6,4.6c-1,0.8-3.5,0.8-4.8,0.1
				c-1.7-0.8-3.3-1.9-5.3-1.5c-0.7,0.1-1.2,0.9-1.8,1.3c0.4,0.5,0.8,1.3,1.4,1.5c2.4,1.1,4.9,1.9,7.2,3c3.6,1.6,5.7,4.8,5.4,7.7
				c-0.3,3.4-3,6.4-6.9,7.4C1060.6,284.5,1058.9,284.7,1057.2,285z"/>
			<path class="st2" d="M703.4,256.1c0-2.5,0-4.5,0-6.5c0-2.8,1.7-4.8,4.1-4.8s4.2,2.1,4.2,4.8c0,2.1,0,4.1,0,6.4
				c2.8,0,5.8-0.2,5.8,3.4c0,3.5-3,3.6-5.8,3.6c0,5.6,0,11,0,16.4c0,2.1-1.5,3.9-3.5,4.4c-2.3,0.3-4.4-1.4-4.7-3.7
				c0-0.2,0-0.3,0-0.5c0-5.4,0-10.8,0-16.3c-2.5-0.4-5.4-0.8-5.2-4C698.4,256.5,700.4,255.5,703.4,256.1z"/>
			<path class="st2" d="M1170.5,263.3c-2.7-0.1-4.8-0.6-5.2-3.4c-0.3-1.8,1.6-3.1,5.2-3.9c0-2,0-4.1,0-6.1c0-2.7,1.6-4.5,4.1-4.6
				c2.6,0,4.2,1.7,4.2,4.7c0,2,0,4,0,6.3c2.8,0.1,6.1-0.2,5.9,3.8c-0.2,3.4-3.2,3.1-5.9,3.2c0,5.6,0.1,11-0.1,16.4
				c0,1.2-0.5,2.3-1.4,3.2c-1,0.8-3,1.6-3.9,1.1c-1.5-0.8-2.5-2.2-2.8-3.9c-0.3-4.5-0.1-9.1-0.1-13.7
				C1170.5,265.4,1170.5,264.5,1170.5,263.3z"/>
			<path class="st2" d="M1226.4,256.5c0-2.6,0-4.7,0-6.9c-0.1-2.2,1.6-4.1,3.9-4.2c0.1,0,0.2,0,0.2,0c2.2-0.1,4.1,1.7,4.1,3.9
				c0,0.1,0,0.2,0,0.3c0,2.2,0,4.3,0,6.8c2.9-0.1,6.1,0,5.9,3.8c-0.2,3-3,3.3-5.9,3.1c0,1.8,0,3.5,0,5.1c0,3.7,0,7.3,0,11
				c0,3.1-1.6,5-4.2,4.9c-2.4,0-4-2-4-4.9c0-5.2,0-10.4,0-15.8c-2.6-0.3-5.3-0.6-5.2-3.8C1221.4,256.9,1223.4,256,1226.4,256.5z"/>
			<path class="st2" d="M623.2,262c1-3.6,4.7-6.6,8.2-6c2,0.3,4.3,2.3,4.3,3.8c-0.1,1.6-2.2,3.4-4.1,3.7c-0.5,0-1,0-1.5,0
				c-5.3-0.4-6.2,2.3-6.9,6.9c-0.4,2.7-0.1,5.5-0.1,8.2c0,3-1.6,5-4.2,5s-4.2-2-4.2-5c0-5.9,0-11.8,0-17.7c0-2.9,1.6-4.9,4-4.9
				c2.6-0.1,4.3,1.7,4.4,4.8C623,261,623.1,261.2,623.2,262z"/>
			<path class="st2" d="M519.6,261.8c1.4-3.8,4.8-6.2,8.3-5.7c2,0.3,4.1,2.1,4.1,3.7c0,1.6-2,3.5-4,3.8c-0.5,0.1-1,0.1-1.5,0
				c-5.2-0.4-6.4,2.3-7,7.1c-0.2,2.7-0.2,5.5-0.1,8.2c0,2.8-1.7,4.8-4.1,4.8c-2.4,0-4.1-1.9-4.1-4.7c0-6.1,0-12.1,0-18.2
				c0-2.7,1.6-4.6,4-4.7c2.4,0,4.2,1.8,4.3,4.6C519.5,261,519.5,261.2,519.6,261.8z"/>
			<path class="st2" d="M963.6,262.2c1.6-4.4,6.2-7,9.5-5.2c1.2,0.7,2.8,2.3,2.8,3.5c0,1.9-1.9,3.1-3.9,3.5c-0.4,0.1-0.8,0.1-1.2,0
				c-5.4-0.5-6.7,2.1-7.3,7.4c-0.2,2.6-0.2,5.2,0,7.7c0,3.1-1.6,5-4.2,5c-2.5,0-4.1-2.1-4.1-5.1c0-5.9,0-11.8,0-17.7
				c0-2.8,1.7-4.8,4-4.9c2.5-0.1,4.1,1.7,4.3,4.6C963.5,261.4,963.6,261.7,963.6,262.2z"/>
			<path class="st2" d="M1151.4,261.7c1.8-2.9,3.7-5.4,7.6-5.3c2.5,0.1,4.8,1.9,4.8,3.8c0,1.9-2.4,4.1-4.8,3.7
				c-5.6-0.8-7.5,2.7-7.8,8.2c-0.1,2.3,0,4.6,0,7c0,3-1.7,5-4.2,5c-2.5,0-4.1-1.9-4.1-5c0-5.9,0-11.8,0-17.7c0-2.9,1.5-4.9,4-4.9
				c2.6-0.1,4.2,1.7,4.4,4.8C1151.3,261.4,1151.4,261.6,1151.4,261.7z"/>
			<path class="st2" d="M1244.9,270.1c0-3.2,0-6.3,0-9.5c0-2.7,1.5-4.1,4.1-4.1c2.6,0,4.2,1.3,4.2,4c0,6.5,0,13,0,19.4
				c0,2.3-1.8,4.2-4.1,4.2c0,0,0,0-0.1,0c-2.3-0.1-4.1-2-4.1-4.3C1244.9,276.6,1244.9,273.3,1244.9,270.1z"/>
			<path class="st2" d="M755.5,269.6c0-3.2,0-6.3,0-9.5c0-2.7,1.5-4.1,4.1-4.1c2.6,0,4.1,1.3,4.2,4c0,6.5,0,13,0,19.4
				c0,2.3-1.9,4.2-4.2,4.2c-2.3-0.1-4.1-2-4.1-4.3C755.5,276.1,755.5,272.9,755.5,269.6z"/>
			<path class="st2" d="M839.8,269.8c0,3.1,0,6.1,0,9.2c0,2.8-1.8,4.7-4.3,4.6c-2.3,0-4-2-4-4.6c0-6.1,0-12.3,0-18.4
				c0-3.1,1.3-4.6,4.2-4.6s4.1,1.3,4.1,4.5C839.8,263.7,839.8,266.7,839.8,269.8z"/>
			<path class="st2" d="M684.8,265.7c2.3,0,4.7,0,7,0s3.6,1.3,3.5,3.5c0.1,1.8-1.2,3.3-3,3.4c-0.1,0-0.3,0-0.4,0
				c-4.7,0-9.5,0-14.2,0c-1.7,0.1-3.3-1.2-3.4-2.9c0-0.2,0-0.3,0-0.5c0-2.3,1.2-3.4,3.5-3.5S682.5,265.7,684.8,265.7z"/>
			<path class="st2" d="M1248.8,251.3c-2.5,0-5.4-2.6-5.3-4.9c0.1-2.3,2.8-4.8,5.2-4.9c2.4,0,5.4,2.9,5.3,5
				C1254,248.7,1251.1,251.3,1248.8,251.3z"/>
			<path class="st2" d="M1330.7,284.8c-2.5,0-5.3-2.6-5.3-4.9c0-2.1,2.8-4.8,5-4.9c2.4,0,5.3,2.4,5.4,4.7
				C1336,282,1333.3,284.7,1330.7,284.8z"/>
			<path class="st2" d="M835.2,250.9c-2.2-0.1-5.1-2.8-5.1-4.9c0-2.2,3-5,5.4-4.9c2.4,0.1,5.2,2.8,5.2,4.9
				C840.6,248.1,837.4,251,835.2,250.9z"/>
			<path class="st2" d="M759.2,250.9c-2.2,0-5.3-2.8-5.1-4.9c0.4-2.7,2.6-4.7,5.3-4.9c2.3,0.1,5.2,2.7,5.2,4.8
				S761.5,250.9,759.2,250.9z"/>
			<path class="st3" d="M893.2,276.8c-3.6,0-6.5-2.8-6.6-6.4c-0.2-2.9,3.1-7,6.4-7c3.6,0,6.9,4.3,7,6.7
				C900.2,273.6,896.8,276.8,893.2,276.8z"/>
			<path class="st3" d="M651.6,276.8c-3.5-0.1-6.2-2.9-6.2-6.4c0,0,0-0.1,0-0.1c-0.2-3.5,2.5-6.5,6.1-6.7c0,0,0.1,0,0.1,0
				c3.8-0.1,6.9,2.8,7.1,6.5c0,0.1,0,0.1,0,0.2C658.7,274,655.6,276.8,651.6,276.8z"/>
			<path class="st3" d="M1089.7,277.4c-3.8,0-6.8-3-7-6.7c0.1-3.7,3.1-6.6,6.8-6.6c3.7,0.1,6.6,3.1,6.6,6.7
				C1096.1,274.3,1093.2,277.2,1089.7,277.4z"/>
			<path class="st3" d="M592.8,276.8c-3.7-0.3-6.4-3.5-6.1-7.1c0.2-3.3,2.9-5.9,6.2-6.1c3.7-0.1,6.8,2.8,6.9,6.4c0,0.1,0,0.3,0,0.4
				C599.7,274.1,596.7,276.8,592.8,276.8z"/>
			<path class="st3" d="M992.1,277.4c-3.4,0-6.3-3.1-6.3-6.7c-0.1-3.6,2.7-6.5,6.3-6.6c3.7-0.2,6.8,2.7,7,6.4c0,0.1,0,0.2,0,0.2
				C998.9,274.4,995.8,277.4,992.1,277.4z"/>
			<path class="st3" d="M1201.3,277.4c-3.4,0-6.2-3.1-6.2-6.8c-0.1-3.6,2.7-6.5,6.3-6.6c0,0,0,0,0.1,0c3.7-0.1,6.9,2.8,7,6.5
				c0,0.1,0,0.1,0,0.2C1208.3,274.5,1205.1,277.4,1201.3,277.4z"/>
			<path class="st3" d="M491.4,276.1c-3.1,0.5-6.5-2.7-6.3-5.8c0.2-3.7,2.4-6,6.4-6s6.1,2.3,6.2,6.1c0,3.2-2.7,5.8-5.9,5.8
				C491.7,276.1,491.5,276.1,491.4,276.1z"/>
			<path class="st3" d="M1122.5,276.6c-3.8,0-6.3-2.4-6.3-6s2.6-5.9,6.4-5.9c3.3-0.2,6,2.3,6.2,5.6c0,0.1,0,0.2,0,0.3
				C1129,273.6,1125.9,277.1,1122.5,276.6z"/>
			<path class="st3" d="M1273.1,264.7c3.7,0,6.1,2.3,6.1,5.9c0,3.7-2.3,6-6.3,6s-6.3-2.4-6.3-6S1269.2,264.7,1273.1,264.7z"/>
		</g>
	</g>
</g>
</svg>
